
<svg version="1.1" id="Layer_1" xmlns="http://www.w3.org/2000/svg" xmlns:xlink="http://www.w3.org/1999/xlink" x="0px" y="0px"
	 width="100%" viewBox="0 0 309 235" enable-background="new 0 0 309 235" xml:space="preserve">
<path fill="#FEFEFE" opacity="1" stroke="none" 
	d="
M186.000000,1.000000 
	C227.316269,1.000000 268.632538,1.000000 309.974426,1.000000 
	C309.974426,79.283936 309.974426,157.567886 309.974426,235.925919 
	C207.091934,235.925919 104.183815,235.925919 1.137843,235.925919 
	C1.137843,157.791107 1.137843,79.581886 1.137843,1.000000 
	C53.020302,1.000000 105.041489,1.000000 157.312836,1.369208 
	C136.582153,2.914893 115.934776,6.057867 95.746216,12.030107 
	C64.569443,21.252916 35.837002,35.138020 10.959591,56.372906 
	C8.522523,58.453144 6.439819,60.948528 3.733408,63.721783 
	C5.026486,63.933071 5.220243,64.030075 5.345816,63.974106 
	C5.935861,63.711105 6.534415,63.449890 7.081280,63.109802 
	C37.020897,44.490749 69.841110,35.179974 104.830956,33.047840 
	C132.758408,31.346056 159.450500,37.587399 185.620697,46.428982 
	C206.425400,53.457840 226.978821,61.231983 247.796600,68.220078 
	C259.158569,72.034058 270.834167,75.034218 283.052032,73.916779 
	C299.889160,72.376869 306.710297,57.544739 297.214142,45.656010 
	C291.510254,38.515026 284.864929,31.307247 277.095215,26.792797 
	C256.082550,14.583709 233.151276,7.123710 208.923172,4.028272 
	C201.277954,3.051500 193.640823,2.011217 186.000000,1.000000 
M23.691771,189.298111 
	C38.636848,186.927063 48.504940,176.999863 58.038326,166.044983 
	C58.564610,168.019638 58.687485,169.711075 58.379887,171.320236 
	C55.457947,186.606033 48.055920,199.899414 39.316944,213.062607 
	C39.708225,213.260880 40.099506,213.459152 41.174816,213.420700 
	C58.481201,206.893707 68.680862,193.000336 77.539284,177.644318 
	C77.946747,192.985718 72.821960,206.505707 65.596893,220.540787 
	C81.590126,213.534149 88.235260,200.117371 94.634529,186.421539 
	C95.294754,200.499130 90.841751,213.203064 84.566727,226.740540 
	C100.374306,219.493713 106.433670,206.146744 111.749710,192.557343 
	C117.180435,193.716095 117.597549,193.798965 116.681831,198.408386 
	C114.725677,208.255066 112.292892,218.007065 110.115799,227.533447 
	C121.851593,221.474075 127.448616,210.029831 131.516724,197.438919 
	C134.695663,197.993073 137.227097,198.434357 140.026245,198.922302 
	C138.567566,209.619400 137.187637,219.738815 135.636902,231.110916 
	C143.390411,221.295181 145.827805,210.408249 149.445343,199.855530 
	C151.283798,199.990936 152.868622,200.107651 154.670471,200.240356 
	C155.292038,211.871155 157.060760,222.860275 164.518768,232.282715 
	C164.518768,223.985184 164.065918,216.024567 164.641861,208.139114 
	C165.259262,199.685989 165.681946,199.712555 174.177322,200.155411 
	C174.456497,200.169968 174.721069,200.464386 175.283081,200.803940 
	C176.103394,211.382629 178.616623,221.547333 187.010406,230.332352 
	C187.010406,220.842575 186.851181,212.369232 187.144897,203.911591 
	C187.203568,202.222168 188.639923,199.667343 190.055237,199.130341 
	C192.912949,198.046036 196.192307,198.073013 199.850388,197.564896 
	C199.409760,208.497650 202.690277,217.709488 210.132324,226.263947 
	C209.614685,222.131760 209.135529,218.855804 208.810867,215.564636 
	C208.467987,212.088882 208.074280,208.599960 208.050476,205.114410 
	C207.985718,195.639725 208.330673,195.311829 217.579849,193.744705 
	C217.870239,193.695496 218.195160,193.850082 218.843979,193.975235 
	C221.520859,202.013672 223.903992,210.452591 230.731247,216.552811 
	C229.188751,208.173935 227.669388,199.920685 226.126465,191.539413 
	C229.547379,190.434875 231.983673,189.648254 233.691299,189.096909 
	C237.629150,195.472794 241.208374,201.268021 244.787598,207.063263 
	C245.188400,206.840652 245.589218,206.618057 245.990021,206.395462 
	C244.606674,201.649765 243.046524,196.946930 241.883698,192.147797 
	C240.349564,185.816223 240.483566,185.783752 246.698166,184.697449 
	C250.129196,189.341110 253.470932,193.863892 256.812653,198.386673 
	C257.248047,198.106720 257.683411,197.826767 258.118805,197.546814 
	C256.995636,194.667282 255.828186,191.804077 254.757706,188.905106 
	C251.709625,180.650558 251.839127,180.430054 260.049957,178.391129 
	C262.654480,182.103073 265.191315,185.718506 267.728149,189.333954 
	C268.160828,189.070862 268.593475,188.807785 269.026123,188.544708 
	C267.955688,185.119278 267.027130,181.640610 265.768250,178.285873 
	C264.823242,175.767578 265.428436,174.385590 267.788483,173.097916 
	C270.780914,171.465195 273.519073,169.366379 276.737488,167.221558 
	C255.758820,134.686234 228.899445,109.988686 192.790924,97.012718 
	C161.893936,85.909561 130.031982,81.596878 97.053078,88.512840 
	C97.451218,90.318344 97.664444,91.436813 97.949776,92.536575 
	C98.233894,93.631615 98.590378,94.707886 98.774178,95.321701 
	C162.129623,92.879791 217.868881,108.586861 261.048279,158.635513 
	C228.529861,173.332092 194.970535,179.462097 160.336456,179.210327 
	C113.891876,178.872711 74.895332,159.148605 39.944588,130.650574 
	C36.376160,134.272476 33.042072,137.656540 29.113541,141.643951 
	C31.118790,143.125870 33.239391,144.693024 36.155186,146.847839 
	C28.417847,154.966553 21.312340,162.422272 14.280334,169.800888 
	C25.838842,168.593704 34.971458,162.171356 44.141842,155.101883 
	C42.363029,160.484039 40.359264,165.560059 37.386742,169.985306 
	C32.961842,176.572739 27.852707,182.700562 22.597527,189.129593 
	C22.655088,189.302780 22.712650,189.475952 22.770212,189.649139 
	C22.823336,189.413712 22.876459,189.178299 23.691771,189.298111 
z"/>
<path fill="#ff85a2" opacity="1.000000" stroke="none" 
	d="
M185.531342,1.000000 
	C193.640823,2.011217 201.277954,3.051500 208.923172,4.028272 
	C233.151276,7.123710 256.082550,14.583709 277.095215,26.792797 
	C284.864929,31.307247 291.510254,38.515026 297.214142,45.656010 
	C306.710297,57.544739 299.889160,72.376869 283.052032,73.916779 
	C270.834167,75.034218 259.158569,72.034058 247.796600,68.220078 
	C226.978821,61.231983 206.425400,53.457840 185.620697,46.428982 
	C159.450500,37.587399 132.758408,31.346056 104.830956,33.047840 
	C69.841110,35.179974 37.020897,44.490749 7.081280,63.109802 
	C6.534415,63.449890 5.935861,63.711105 5.345816,63.974106 
	C5.220243,64.030075 5.026486,63.933071 3.733408,63.721783 
	C6.439819,60.948528 8.522523,58.453144 10.959591,56.372906 
	C35.837002,35.138020 64.569443,21.252916 95.746216,12.030107 
	C115.934776,6.057867 136.582153,2.914893 157.781494,1.369208 
	C167.020889,1.000000 176.041794,1.000000 185.531342,1.000000 
z"/>
<path fill="#ff85a2" opacity="1.000000" stroke="none" 
	d="
M39.791836,212.800369 
	C48.055920,199.899414 55.457947,186.606033 58.379887,171.320236 
	C58.687485,169.711075 58.564610,168.019638 58.038326,166.044983 
	C48.504940,176.999863 38.636848,186.927063 23.337067,189.140625 
	C22.982365,188.983154 23.034740,189.023956 23.034740,189.023956 
	C27.852707,182.700562 32.961842,176.572739 37.386742,169.985306 
	C40.359264,165.560059 42.363029,160.484039 44.141842,155.101883 
	C34.971458,162.171356 25.838842,168.593704 14.280334,169.800888 
	C21.312340,162.422272 28.417847,154.966553 36.155186,146.847839 
	C33.239391,144.693024 31.118790,143.125870 29.113541,141.643951 
	C33.042072,137.656540 36.376160,134.272476 39.944588,130.650574 
	C74.895332,159.148605 113.891876,178.872711 160.336456,179.210327 
	C194.970535,179.462097 228.529861,173.332092 261.048279,158.635513 
	C217.868881,108.586861 162.129623,92.879791 98.774178,95.321701 
	C98.590378,94.707886 98.233894,93.631615 97.949776,92.536575 
	C97.664444,91.436813 97.451218,90.318344 97.053078,88.512840 
	C130.031982,81.596878 161.893936,85.909561 192.790924,97.012718 
	C228.899445,109.988686 255.758820,134.686234 276.737488,167.221558 
	C273.519073,169.366379 270.780914,171.465195 267.788483,173.097916 
	C265.428436,174.385590 264.823242,175.767578 265.768250,178.285873 
	C267.027130,181.640610 267.955688,185.119278 269.026123,188.544708 
	C268.593475,188.807785 268.160828,189.070862 267.728149,189.333954 
	C265.191315,185.718506 262.654480,182.103073 260.049957,178.391129 
	C251.839127,180.430054 251.709625,180.650558 254.757706,188.905106 
	C255.828186,191.804077 256.995636,194.667282 258.118805,197.546814 
	C257.683411,197.826767 257.248047,198.106720 256.812653,198.386673 
	C253.470932,193.863892 250.129196,189.341110 246.698166,184.697449 
	C240.483566,185.783752 240.349564,185.816223 241.883698,192.147797 
	C243.046524,196.946930 244.606674,201.649765 245.990021,206.395462 
	C245.589218,206.618057 245.188400,206.840652 244.787598,207.063263 
	C241.208374,201.268021 237.629150,195.472794 233.691299,189.096909 
	C231.983673,189.648254 229.547379,190.434875 226.126465,191.539413 
	C227.669388,199.920685 229.188751,208.173935 230.731247,216.552811 
	C223.903992,210.452591 221.520859,202.013672 218.843979,193.975235 
	C218.195160,193.850082 217.870239,193.695496 217.579849,193.744705 
	C208.330673,195.311829 207.985718,195.639725 208.050476,205.114410 
	C208.074280,208.599960 208.467987,212.088882 208.810867,215.564636 
	C209.135529,218.855804 209.614685,222.131760 210.132324,226.263947 
	C202.690277,217.709488 199.409760,208.497650 199.850388,197.564896 
	C196.192307,198.073013 192.912949,198.046036 190.055237,199.130341 
	C188.639923,199.667343 187.203568,202.222168 187.144897,203.911591 
	C186.851181,212.369232 187.010406,220.842575 187.010406,230.332352 
	C178.616623,221.547333 176.103394,211.382629 175.283081,200.803940 
	C174.721069,200.464386 174.456497,200.169968 174.177322,200.155411 
	C165.681946,199.712555 165.259262,199.685989 164.641861,208.139114 
	C164.065918,216.024567 164.518768,223.985184 164.518768,232.282715 
	C157.060760,222.860275 155.292038,211.871155 154.670471,200.240356 
	C152.868622,200.107651 151.283798,199.990936 149.445343,199.855530 
	C145.827805,210.408249 143.390411,221.295181 135.636902,231.110916 
	C137.187637,219.738815 138.567566,209.619400 140.026245,198.922302 
	C137.227097,198.434357 134.695663,197.993073 131.516724,197.438919 
	C127.448616,210.029831 121.851593,221.474075 110.115799,227.533447 
	C112.292892,218.007065 114.725677,208.255066 116.681831,198.408386 
	C117.597549,193.798965 117.180435,193.716095 111.749710,192.557343 
	C106.433670,206.146744 100.374306,219.493713 84.566727,226.740540 
	C90.841751,213.203064 95.294754,200.499130 94.634529,186.421539 
	C88.235260,200.117371 81.590126,213.534149 65.596893,220.540787 
	C72.821960,206.505707 77.946747,192.985718 77.539284,177.644318 
	C68.680862,193.000336 58.481201,206.893707 40.670410,213.314728 
	C40.041283,213.072601 39.916557,212.936478 39.791836,212.800369 
z"/>
<path fill="#ff85a2" opacity="1.000000" stroke="none" 
	d="
M22.955975,188.963013 
	C22.876459,189.178299 22.823336,189.413712 22.770214,189.649139 
	C22.712650,189.475952 22.655088,189.302780 22.816133,189.076782 
	C23.034740,189.023956 22.982365,188.983154 22.955975,188.963013 
z"/>
<path fill="#ff85a2" opacity="1.000000" stroke="none" 
	d="
M40.328396,213.433075 
	C40.099506,213.459152 39.708225,213.260880 39.554390,212.931488 
	C39.916557,212.936478 40.041283,213.072601 40.328396,213.433075 
z"/>
</svg>